<?xml version="1.0" encoding="UTF-8"?>
<!DOCTYPE svg PUBLIC "-//W3C//DTD SVG 1.1//EN" "http://www.w3.org/Graphics/SVG/1.1/DTD/svg11.dtd">
<!-- Creator: CorelDRAW 2017 -->
<svg xmlns="http://www.w3.org/2000/svg" xml:space="preserve" width="11.6929in" height="3.93701in" version="1.1" style="shape-rendering:geometricPrecision; text-rendering:geometricPrecision; image-rendering:optimizeQuality; fill-rule:evenodd; clip-rule:evenodd"
viewBox="0 0 11692.91 3937.01"
 xmlns:xlink="http://www.w3.org/1999/xlink">
 <defs>
  <style type="text/css">
   <![CDATA[
    .fil0 {fill:#373435;fill-rule:nonzero}
   ]]>
  </style>
   <clipPath id="id0">
    <rect x="475.95" y="208.87" width="3258.73" height="3404.66"/>
   </clipPath>
   <clipPath id="id1">
    <path d="M475.95 3613.53l3258.73 0 0 -3404.66 -3258.73 0 0 3404.66z"/>
   </clipPath>
   <clipPath id="id2">
    <rect x="475.95" y="208.87" width="3258.73" height="3404.66"/>
   </clipPath>
 </defs>
 <g id="Layer_x0020_1">
  <metadata id="CorelCorpID_0Corel-Layer"/>
  <g style="clip-path:url(#id0)">
  </g>
  <g style="clip-path:url(#id1)">
   <image id="logo_kecil.png" x="475.95" y="208.86" width="3258.74" height="3404.67" xlink:href="logoattarbiyah_Images\logoattarbiyah_ImgID1.png"/>
  </g>
  <g style="clip-path:url(#id2)">
  </g>
  <path class="fil0" d="M4482.63 762.35l416.77 893.26 -96 0 -139.55 -293.61 -387.12 0 -138.72 293.61 -99.53 0 421.75 -893.26 22.39 0zm-11.2 187.44l-153.65 325.12 306.67 0 -153.02 -325.12z"/>
  <polygon id="1" class="fil0" points="5010.95,739.95 5095.55,739.95 5095.55,1655.6 5010.95,1655.6 "/>
  <polygon id="2" class="fil0" points="5217.68,1282.37 5551.09,1282.37 5551.09,1357.02 5217.68,1357.02 "/>
  <polygon id="3" class="fil0" points="5686.7,762.35 5776.28,762.35 5776.28,1655.6 5686.7,1655.6 "/>
  <path id="4" class="fil0" d="M6300.04 1066.73l-54.74 56.4c-45.41,-43.96 -89.99,-65.94 -133.33,-65.94 -27.58,0 -51.21,9.13 -70.91,27.37 -19.7,18.04 -29.65,39.4 -29.65,63.66 0,21.36 8.09,41.89 24.26,61.17 16.17,19.91 50.39,43.13 102.22,69.87 63.04,32.56 105.96,64.28 128.76,94.55 22.19,30.69 33.39,65.31 33.39,103.67 0,54.33 -19.08,100.15 -57.23,137.89 -38.15,37.53 -85.84,56.4 -143.07,56.4 -38.15,0 -74.44,-8.3 -109.27,-24.88 -34.63,-16.59 -63.24,-39.4 -86.05,-68.63l53.5 -60.75c43.33,48.93 89.57,73.4 138.3,73.4 34.01,0 63.04,-10.99 87.09,-32.76 23.85,-21.77 35.87,-47.48 35.87,-76.93 0,-24.26 -7.88,-45.82 -23.64,-64.9 -15.97,-18.66 -51.63,-42.09 -107.2,-70.29 -59.72,-30.69 -100.35,-60.96 -121.71,-90.82 -21.56,-29.86 -32.35,-63.86 -32.35,-102.22 0,-49.97 17.21,-91.44 51.42,-124.61 34.42,-32.97 77.76,-49.56 130.22,-49.56 60.96,0 122.33,29.24 184.13,87.91z"/>
  <polygon id="5" class="fil0" points="6437.09,739.95 6521.69,739.95 6521.69,1655.6 6437.09,1655.6 "/>
  <path id="6" class="fil0" d="M7356.68 994.99l0 660.61 -84.6 0 0 -113.63c-35.66,43.33 -75.47,75.89 -119.85,97.45 -44.17,21.56 -92.69,32.35 -145.14,32.35 -93.31,0 -173.14,-33.8 -239.28,-101.39 -66.15,-67.8 -99.11,-149.91 -99.11,-246.95 0,-94.76 33.38,-176.04 100.15,-243.43 66.56,-67.39 146.8,-101.19 240.73,-101.19 54.12,0 103.05,11.4 147.01,34.21 43.75,22.81 82.32,57.22 115.49,103.46l0 -121.5 84.6 0zm-340.46 65.93c-47.28,0 -91.03,11.61 -130.84,34.83 -40.02,23.02 -71.74,55.57 -95.38,97.46 -23.64,41.88 -35.46,86.26 -35.46,133.12 0,46.24 11.82,90.61 35.67,132.91 23.84,42.3 55.78,75.27 96,98.7 40.22,23.64 83.35,35.46 129.39,35.46 46.24,0 90.41,-11.61 131.87,-35.04 41.68,-23.43 73.61,-54.94 96,-94.96 22.39,-39.81 33.59,-84.8 33.59,-134.78 0,-76.1 -25.09,-139.75 -75.47,-190.97 -50.18,-51.22 -111.97,-76.72 -185.37,-76.72z"/>
  <path id="7" class="fil0" d="M7548.48 994.99l84.6 0 0 114.25c29.65,-42.09 59.92,-72.99 91.23,-92.48 42.92,-25.3 88.12,-37.94 135.4,-37.94 32.14,0 62.41,6.22 91.24,18.87 28.82,12.44 52.25,29.24 70.5,49.97 18.25,20.94 34.01,50.8 47.48,89.78 28.2,-51.83 63.65,-91.23 105.95,-118.19 42.51,-26.96 88.13,-40.43 137.06,-40.43 45.62,0 86.05,11.61 120.89,34.63 35.04,23.02 60.96,55.15 77.96,96.42 17,41.26 25.5,103.05 25.5,185.57l0 360.17 -87.09 0 0 -360.37c0,-70.91 -4.98,-119.43 -15.13,-145.98 -10.16,-26.54 -27.37,-47.9 -51.84,-64.07 -24.47,-16.17 -53.5,-24.26 -87.5,-24.26 -41.06,0 -78.8,12.24 -112.8,36.5 -34.21,24.26 -59.09,56.61 -74.85,97.04 -15.76,40.43 -23.64,108.03 -23.64,202.58l0 258.56 -84.59 0 0 -337.98c0,-79.62 -4.98,-133.74 -14.93,-162.35 -9.95,-28.61 -27.17,-51.43 -51.84,-68.63 -24.88,-17.21 -54.12,-25.71 -88.12,-25.71 -39.4,0 -76.1,11.82 -110.31,35.46 -34.21,23.64 -59.51,55.57 -75.89,95.59 -16.38,40.02 -24.67,101.39 -24.67,183.92l0 279.71 -84.6 0 0 -660.61z"/>
  <path id="8" class="fil0" d="M8745.09 723.78c19.28,0 35.67,6.84 49.35,20.73 13.69,13.69 20.53,30.48 20.53,49.76 0,19.08 -6.84,35.67 -20.53,49.35 -13.69,13.89 -30.07,20.74 -49.35,20.74 -19.07,0 -35.25,-6.84 -48.93,-20.74 -13.69,-13.69 -20.53,-30.27 -20.53,-49.35 0,-19.28 6.84,-36.08 20.53,-49.76 13.69,-13.89 29.86,-20.73 48.93,-20.73zm-42.09 271.21l84.6 0 0 660.61 -84.6 0 0 -660.61z"/>
  <polygon id="9" class="fil0" points="8893.55,994.99 8981.88,994.99 9209.75,1501.54 9431.2,994.99 9521.81,994.99 9127.44,1896.96 9036.83,1896.96 9166.21,1601.28 "/>
  <path id="10" class="fil0" d="M10289.62 994.99l0 660.61 -84.6 0 0 -113.63c-35.66,43.33 -75.47,75.89 -119.85,97.45 -44.17,21.56 -92.69,32.35 -145.14,32.35 -93.31,0 -173.14,-33.8 -239.28,-101.39 -66.15,-67.8 -99.11,-149.91 -99.11,-246.95 0,-94.76 33.38,-176.04 100.15,-243.43 66.56,-67.39 146.8,-101.19 240.73,-101.19 54.12,0 103.05,11.4 147.01,34.21 43.75,22.81 82.32,57.22 115.49,103.46l0 -121.5 84.6 0zm-340.46 65.93c-47.28,0 -91.03,11.61 -130.84,34.83 -40.02,23.02 -71.74,55.57 -95.38,97.46 -23.64,41.88 -35.46,86.26 -35.46,133.12 0,46.24 11.82,90.61 35.67,132.91 23.84,42.3 55.78,75.27 96,98.7 40.22,23.64 83.35,35.46 129.39,35.46 46.24,0 90.41,-11.61 131.87,-35.04 41.68,-23.43 73.61,-54.94 96,-94.96 22.39,-39.81 33.59,-84.8 33.59,-134.78 0,-76.1 -25.09,-139.75 -75.47,-190.97 -50.18,-51.22 -111.97,-76.72 -185.37,-76.72z"/>
  <path id="11" class="fil0" d="M10481.42 739.95l84.6 0 0 374.26c34.42,-45.2 72.57,-79.21 113.83,-101.6 41.47,-22.6 86.26,-33.8 134.57,-33.8 49.56,0 93.52,12.44 131.87,37.53 38.36,25.09 66.77,58.89 85.01,100.98 18.25,42.3 27.37,108.44 27.37,198.64l0 339.64 -84.59 0 0 -314.76c0,-75.89 -3.11,-126.69 -9.13,-152.19 -10.57,-43.54 -29.86,-76.3 -57.64,-98.49 -27.78,-21.98 -64.28,-32.97 -109.48,-32.97 -51.63,0 -97.87,17 -138.72,51.01 -40.85,33.8 -67.8,75.89 -80.87,126.07 -8.09,32.35 -12.23,92.06 -12.23,179.35l0 241.98 -84.6 0 0 -915.65z"/>
  <path id="12" class="fil0" d="M4024.8 2970.61l75.89 -45.62c53.5,98.7 115.28,148.05 185.37,148.05 30.06,0 58.26,-7.05 84.6,-20.94 26.33,-13.89 46.44,-32.76 60.13,-56.19 13.89,-23.43 20.74,-48.31 20.74,-74.65 0,-29.86 -10.16,-59.09 -30.48,-87.91 -27.99,-39.61 -79,-87.5 -153.44,-143.28 -74.64,-56.4 -121.09,-97.04 -139.33,-122.13 -31.72,-42.09 -47.48,-87.7 -47.48,-136.64 0,-38.77 9.33,-74.23 27.99,-106.16 18.66,-31.93 45,-57.02 79,-75.48 34,-18.45 70.7,-27.57 110.52,-27.57 42.3,0 81.9,10.37 118.6,31.31 36.7,20.74 75.69,59.09 116.74,114.87l-72.99 55.36c-33.8,-44.58 -62.62,-74.02 -86.46,-88.13 -23.85,-14.31 -49.76,-21.35 -77.76,-21.35 -36.29,0 -65.94,10.99 -88.95,32.76 -23.02,21.98 -34.63,48.73 -34.63,80.87 0,19.28 4.15,38.15 12.23,56.4 8.09,18.25 23.02,37.94 44.58,59.51 11.61,11.2 50.39,41.06 115.91,89.16 77.55,57.23 130.84,108.03 159.66,152.4 28.82,44.58 43.34,89.37 43.34,134.36 0,64.69 -24.68,121.09 -73.82,168.78 -49.35,47.9 -109.27,71.74 -179.77,71.74 -54.32,0 -103.67,-14.52 -147.84,-43.54 -44.17,-29.03 -85.01,-77.76 -122.33,-145.97z"/>
  <path id="13" class="fil0" d="M4711.54 2477.12l84.6 0 0 308.33c0,75.27 4.15,126.9 12.23,155.3 12.03,40.43 35.46,72.36 69.67,95.8 34.21,23.43 75.27,35.25 122.75,35.25 47.48,0 87.71,-11.41 120.88,-34.21 32.97,-23.02 55.98,-52.87 68.43,-90.2 8.5,-25.5 12.86,-79.41 12.86,-161.94l0 -308.33 87.08 0 0 323.88c0,91.02 -10.57,159.45 -31.93,205.48 -21.15,46.24 -53.29,82.32 -96,108.24 -42.71,26.13 -96.21,39.19 -160.69,39.19 -64.49,0 -118.19,-13.06 -161.32,-39.19 -43.13,-25.92 -75.47,-62.41 -96.62,-109.07 -21.36,-46.65 -31.93,-116.94 -31.93,-210.67l0 -317.86z"/>
  <polygon id="14" class="fil0" points="5478.94,2222.08 5563.54,2222.08 5563.54,2744.18 5872.07,2477.12 5995.24,2477.12 5631.54,2791.87 6016.38,3137.73 5895.91,3137.73 5563.54,2838.94 5563.54,3137.73 5478.94,3137.73 "/>
  <path id="15" class="fil0" d="M6761.59 2477.12l0 660.61 -84.6 0 0 -113.63c-35.66,43.33 -75.47,75.89 -119.85,97.45 -44.17,21.56 -92.69,32.35 -145.14,32.35 -93.31,0 -173.14,-33.8 -239.28,-101.39 -66.15,-67.8 -99.11,-149.91 -99.11,-246.95 0,-94.76 33.38,-176.04 100.15,-243.43 66.56,-67.39 146.8,-101.19 240.73,-101.19 54.12,0 103.05,11.4 147.01,34.21 43.75,22.81 82.32,57.22 115.49,103.46l0 -121.5 84.6 0zm-340.46 65.93c-47.28,0 -91.03,11.61 -130.84,34.83 -40.02,23.02 -71.74,55.57 -95.38,97.46 -23.64,41.88 -35.46,86.26 -35.46,133.12 0,46.24 11.82,90.61 35.67,132.91 23.84,42.3 55.78,75.27 96,98.7 40.22,23.64 83.35,35.46 129.39,35.46 46.24,0 90.41,-11.61 131.87,-35.04 41.68,-23.43 73.61,-54.94 96,-94.96 22.39,-39.81 33.59,-84.8 33.59,-134.78 0,-76.1 -25.09,-139.75 -75.47,-190.97 -50.18,-51.22 -111.97,-76.72 -185.37,-76.72z"/>
  <path id="16" class="fil0" d="M6954.63 2477.12l84.6 0 0 121.5c33.59,-46.24 72.16,-80.66 115.91,-103.46 43.75,-22.81 92.48,-34.21 146.39,-34.21 93.93,0 174.17,33.8 240.94,101.19 66.77,67.39 100.15,148.67 100.15,243.43 0,97.04 -33.17,179.15 -99.32,246.95 -66.15,67.59 -145.97,101.39 -239.49,101.39 -52.46,0 -100.77,-10.99 -144.94,-32.76 -44.17,-21.98 -83.98,-54.54 -119.64,-97.87l0 355.81 -84.6 0 0 -901.96zm340.67 65.93c-73.61,0 -135.4,25.5 -185.58,76.72 -50.38,51.22 -75.47,114.87 -75.47,190.97 0,49.97 11.2,94.96 33.59,134.78 22.39,40.02 54.53,71.54 96.21,94.96 41.89,23.43 86.05,35.04 132.29,35.04 45.62,0 88.54,-11.82 128.76,-35.46 40.23,-23.43 72.16,-56.4 96,-98.7 23.84,-42.3 35.66,-86.67 35.66,-132.91 0,-46.86 -11.82,-91.24 -35.46,-133.12 -23.64,-41.89 -55.36,-74.44 -95.38,-97.46 -39.81,-23.22 -83.56,-34.83 -130.63,-34.83z"/>
  <path id="17" class="fil0" d="M7790.87 2477.12l84.6 0 0 308.33c0,75.27 4.15,126.9 12.23,155.3 12.03,40.43 35.46,72.36 69.67,95.8 34.21,23.43 75.27,35.25 122.75,35.25 47.48,0 87.71,-11.41 120.88,-34.21 32.97,-23.02 55.98,-52.87 68.43,-90.2 8.5,-25.5 12.86,-79.41 12.86,-161.94l0 -308.33 87.08 0 0 323.88c0,91.02 -10.57,159.45 -31.93,205.48 -21.15,46.24 -53.29,82.32 -96,108.24 -42.71,26.13 -96.21,39.19 -160.69,39.19 -64.49,0 -118.19,-13.06 -161.32,-39.19 -43.13,-25.92 -75.47,-62.41 -96.62,-109.07 -21.36,-46.65 -31.93,-116.94 -31.93,-210.67l0 -317.86z"/>
  <path id="18" class="fil0" d="M8525.92 2477.12l87.09 0 0 96.62c25.92,-38.15 53.29,-66.35 82.11,-85.01 28.82,-18.45 58.89,-27.78 89.99,-27.78 23.64,0 48.73,7.46 75.48,22.39l-44.37 71.33c-17.83,-7.67 -32.76,-11.61 -45,-11.61 -28.41,0 -55.78,11.61 -82.11,34.83 -26.33,23.22 -46.44,59.51 -60.33,108.44 -10.57,37.53 -15.76,113.63 -15.76,228.08l0 223.31 -87.09 0 0 -660.61z"/>
  <path id="19" class="fil0" d="M9590.65 2477.12l0 660.61 -84.6 0 0 -113.63c-35.66,43.33 -75.47,75.89 -119.85,97.45 -44.17,21.56 -92.69,32.35 -145.14,32.35 -93.31,0 -173.14,-33.8 -239.28,-101.39 -66.15,-67.8 -99.11,-149.91 -99.11,-246.95 0,-94.76 33.38,-176.04 100.15,-243.43 66.56,-67.39 146.8,-101.19 240.73,-101.19 54.12,0 103.05,11.4 147.01,34.21 43.75,22.81 82.32,57.22 115.49,103.46l0 -121.5 84.6 0zm-340.46 65.93c-47.28,0 -91.03,11.61 -130.84,34.83 -40.02,23.02 -71.74,55.57 -95.38,97.46 -23.64,41.88 -35.46,86.26 -35.46,133.12 0,46.24 11.82,90.61 35.67,132.91 23.84,42.3 55.78,75.27 96,98.7 40.22,23.64 83.35,35.46 129.39,35.46 46.24,0 90.41,-11.61 131.87,-35.04 41.68,-23.43 73.61,-54.94 96,-94.96 22.39,-39.81 33.59,-84.8 33.59,-134.78 0,-76.1 -25.09,-139.75 -75.47,-190.97 -50.18,-51.22 -111.97,-76.72 -185.37,-76.72z"/>
 </g>
</svg>
